<?xml version="1.0" encoding="UTF-8" standalone="no"?>
<!-- Created with Inkscape (http://www.inkscape.org/) -->

<svg
   xmlns:dc="http://purl.org/dc/elements/1.1/"
   xmlns:cc="http://creativecommons.org/ns#"
   xmlns:rdf="http://www.w3.org/1999/02/22-rdf-syntax-ns#"
   xmlns:svg="http://www.w3.org/2000/svg"
   xmlns="http://www.w3.org/2000/svg"
   xmlns:sodipodi="http://sodipodi.sourceforge.net/DTD/sodipodi-0.dtd"
   xmlns:inkscape="http://www.inkscape.org/namespaces/inkscape"
   id="svg7384"
   height="16"
   width="16"
   version="1.1"
   sodipodi:docname="function.svg"
   inkscape:version="0.92.1 r15371">
  <defs
     id="defs4537" />
  <sodipodi:namedview
     pagecolor="#ffffff"
     bordercolor="#666666"
     borderopacity="1"
     objecttolerance="10"
     gridtolerance="10"
     guidetolerance="10"
     inkscape:pageopacity="0"
     inkscape:pageshadow="2"
     inkscape:window-width="1325"
     inkscape:window-height="717"
     id="namedview4535"
     showgrid="false"
     inkscape:zoom="32.3125"
     inkscape:cx="8"
     inkscape:cy="8"
     inkscape:window-x="41"
     inkscape:window-y="27"
     inkscape:window-maximized="1"
     inkscape:current-layer="svg7384" />
  <metadata
     id="metadata90">
    <rdf:RDF>
      <cc:Work
         rdf:about="">
        <dc:format>image/svg+xml</dc:format>
        <dc:type
           rdf:resource="http://purl.org/dc/dcmitype/StillImage" />
        <dc:title>Gnome Symbolic Icon Theme</dc:title>
      </cc:Work>
    </rdf:RDF>
  </metadata>
  <title
     id="title9167">Gnome Symbolic Icon Theme</title>
  <g
     id="layer12"
     transform="translate(-101 -927)"
     style="fill:#272d6f;fill-opacity:0.94117647">
    <path
       id="path15214"
       style="fill:#272d6f;fill-opacity:0.94117647"
       d="m109 927-4.9997 3.1426v4.7148l4.9995 3.1426 5.0005-3.1426v-4.7148zm0 6-3.6451-2.176 3.6451-2.292 3.6462 2.292z" />
    <path
       id="path15265"
       style="block-progression:tb;text-indent:0;color:#bebebe;text-transform:none;fill:#272d6f;fill-opacity:0.94117647"
       d="m112 939h-0.99999c-0.2569 0.00001-0.52845 0.11786-0.71875 0.28369l-1.2812 1.1631-1.2812-1.1631c-0.19004-0.16606-0.46185-0.28368-0.71877-0.28364h-1l-0.00001 0.90779c0 0.28091 0.0902 0.50137 0.2813 0.68082l2.7187 2.4113 2.7187-2.4113c0.19093-0.17949 0.28125-0.39993 0.28125-0.68084v-0.90778z" />
  </g>
</svg>
