<?xml version="1.0" encoding="UTF-8" standalone="no"?>
<!-- Svg Vector Icons : http://www.onlinewebfonts.com/icon -->

<svg
   xmlns:dc="http://purl.org/dc/elements/1.1/"
   xmlns:cc="http://creativecommons.org/ns#"
   xmlns:rdf="http://www.w3.org/1999/02/22-rdf-syntax-ns#"
   xmlns:svg="http://www.w3.org/2000/svg"
   xmlns="http://www.w3.org/2000/svg"
   xmlns:sodipodi="http://sodipodi.sourceforge.net/DTD/sodipodi-0.dtd"
   xmlns:inkscape="http://www.inkscape.org/namespaces/inkscape"
   version="1.1"
   x="0px"
   y="0px"
   viewBox="0 0 1000 1000"
   enable-background="new 0 0 1000 1000"
   xml:space="preserve"
   id="svg4592"
   sodipodi:docname="func.svg"
   inkscape:version="0.92.1 r15371"><defs
     id="defs4596" /><sodipodi:namedview
     pagecolor="#ffffff"
     bordercolor="#666666"
     borderopacity="1"
     objecttolerance="10"
     gridtolerance="10"
     guidetolerance="10"
     inkscape:pageopacity="0"
     inkscape:pageshadow="2"
     inkscape:window-width="1325"
     inkscape:window-height="717"
     id="namedview4594"
     showgrid="false"
     inkscape:zoom="0.515"
     inkscape:cx="500"
     inkscape:cy="500"
     inkscape:window-x="41"
     inkscape:window-y="27"
     inkscape:window-maximized="1"
     inkscape:current-layer="svg4592" /><metadata
     id="metadata4582"> Svg Vector Icons : http://www.onlinewebfonts.com/icon <rdf:RDF><cc:Work
     rdf:about=""><dc:format>image/svg+xml</dc:format><dc:type
       rdf:resource="http://purl.org/dc/dcmitype/StillImage" /><dc:title></dc:title></cc:Work></rdf:RDF></metadata><g
     id="g4590"
     style="fill:#272d6f;fill-opacity:0.94117647"><g
       id="g4588"
       style="fill:#272d6f;fill-opacity:0.94117647"><path
         d="M246.3,990c80.1,0,122.6-71.5,135.1-113.8c0.2-0.7,0.4-1.3,0.6-2c29.1-120.6,75.5-311.9,109.9-451h123c23.1,0,41.9-18.7,41.9-41.9c0-23.1-18.7-41.9-41.9-41.9H512.7c11-43.8,19.1-75,22.2-85.7l3.5-11.9c13-44.3,43.4-148.1,90.4-148.1c43.6,0,50.1,67.1,50.4,70.4c1.9,23,21.9,40.3,45,38.4c23.1-1.8,40.3-21.9,38.5-45c-3.9-51-37-147.6-133.9-147.6c-109.8,0-151,140.7-170.8,208.3l-3.4,11.4c-4,13.4-14.6,54.6-28.3,109.8H279.8c-23.1,0-41.9,18.7-41.9,41.9c0,23.1,18.7,41.9,41.9,41.9h125.8C362.6,597.6,307,827.7,300.9,853c-2.3,6.6-19.5,53.2-54.6,53.2c-53.6,0-76.9-75.3-77-75.8c-6.4-22.2-29.6-35.1-51.9-28.6c-22.2,6.4-35,29.7-28.6,51.9C103.5,904.3,153.1,990,246.3,990z"
         id="path4584"
         style="fill:#272d6f;fill-opacity:0.94117647" /><path
         d="M867.4,882c24.7,0,45.4-17.5,45.4-45.4c0-13-5.2-24.7-16.2-37.6l-87-99.9l84.4-98.6c7.8-9.7,13.6-20.1,13.6-33.8c0-24.7-20.1-42.9-46.1-42.9c-17.5,0-31.1,11-42.8,25.3l-65.5,85.6l-64.2-85.6c-13-16.2-26.6-25.3-46.1-25.3c-24.7,0-45.4,17.5-45.4,45.5c0,13,5.2,24.7,16.2,37.6l81.1,93.5l-88.9,105.1c-8.4,9.7-13.6,20.1-13.6,33.8c0,24.7,20.1,42.8,46.1,42.8c17.5,0,31.2-11,42.8-25.3l70.1-92.1l70.1,92.1C834.3,872.9,847.9,882,867.4,882z"
         id="path4586"
         style="fill:#272d6f;fill-opacity:0.94117647" /></g></g></svg>