<?xml version="1.0" encoding="UTF-8" standalone="no"?>
<svg
   xmlns:dc="http://purl.org/dc/elements/1.1/"
   xmlns:cc="http://creativecommons.org/ns#"
   xmlns:rdf="http://www.w3.org/1999/02/22-rdf-syntax-ns#"
   xmlns:svg="http://www.w3.org/2000/svg"
   xmlns="http://www.w3.org/2000/svg"
   xmlns:sodipodi="http://sodipodi.sourceforge.net/DTD/sodipodi-0.dtd"
   xmlns:inkscape="http://www.inkscape.org/namespaces/inkscape"
   width="10px"
   height="16px"
   viewBox="0 0 10 16"
   version="1.1"
   id="svg3389"
   inkscape:version="0.91 r13725"
   sodipodi:docname="git-branch-waitforcommit.svg">
  <metadata
     id="metadata3402">
    <rdf:RDF>
      <cc:Work
         rdf:about="">
        <dc:format>image/svg+xml</dc:format>
        <dc:type
           rdf:resource="http://purl.org/dc/dcmitype/StillImage" />
        <dc:title>git-branch</dc:title>
      </cc:Work>
    </rdf:RDF>
  </metadata>
  <sodipodi:namedview
     pagecolor="#ffffff"
     bordercolor="#666666"
     borderopacity="1"
     objecttolerance="10"
     gridtolerance="10"
     guidetolerance="10"
     inkscape:pageopacity="0"
     inkscape:pageshadow="2"
     inkscape:window-width="1313"
     inkscape:window-height="744"
     id="namedview3400"
     showgrid="false"
     inkscape:zoom="37.5625"
     inkscape:cx="5"
     inkscape:cy="8"
     inkscape:window-x="53"
     inkscape:window-y="24"
     inkscape:window-maximized="1"
     inkscape:current-layer="svg3389" />
  <!-- Generator: Sketch 40.3 (33839) - http://www.bohemiancoding.com/sketch -->
  <title
     id="title3391">git-branch</title>
  <desc
     id="desc3393">Created with Sketch.</desc>
  <defs
     id="defs3395" />
  <g
     id="Octicons"
     stroke="none"
     stroke-width="1"
     fill="none"
     fill-rule="evenodd">
    <g
       id="git-branch"
       fill="#000000">
      <path
         d="M10,5 C10,3.89 9.11,3 8,3 C6.89,3 6,3.89 6,5 C6,5.73 6.41,6.38 7,6.72 L7,7.02 C6.98,7.54 6.77,8 6.37,8.4 C5.97,8.8 5.51,9.01 4.99,9.03 C4.16,9.05 3.51,9.19 2.99,9.48 L2.99,4.72 C3.58,4.38 3.99,3.74 3.99,3 C3.99,1.89 3.1,1 1.99,1 C0.88,1 0,1.89 0,3 C0,3.73 0.41,4.38 1,4.72 L1,11.28 C0.41,11.63 0,12.27 0,13 C0,14.11 0.89,15 2,15 C3.11,15 4,14.11 4,13 C4,12.47 3.8,12 3.47,11.64 C3.56,11.58 3.95,11.23 4.06,11.17 C4.31,11.06 4.62,11 5,11 C6.05,10.95 6.95,10.55 7.75,9.75 C8.55,8.95 8.95,7.77 9,6.73 L8.98,6.73 C9.59,6.37 10,5.73 10,5 L10,5 Z M2,1.8 C2.66,1.8 3.2,2.35 3.2,3 C3.2,3.65 2.65,4.2 2,4.2 C1.35,4.2 0.8,3.65 0.8,3 C0.8,2.35 1.35,1.8 2,1.8 L2,1.8 Z M2,14.21 C1.34,14.21 0.8,13.66 0.8,13.01 C0.8,12.36 1.35,11.81 2,11.81 C2.65,11.81 3.2,12.36 3.2,13.01 C3.2,13.66 2.65,14.21 2,14.21 L2,14.21 Z M8,6.21 C7.34,6.21 6.8,5.66 6.8,5.01 C6.8,4.36 7.35,3.81 8,3.81 C8.65,3.81 9.2,4.36 9.2,5.01 C9.2,5.66 8.65,6.21 8,6.21 L8,6.21 Z"
         id="Shape" />
    </g>
  </g>
  <path
     style="fill:#d4aa00"
     d="m 1.5178037,14.925878 c -1.35208131,-0.34912 -1.92958324,-1.902543 -1.13688425,-3.058107 0.10695503,-0.155915 0.361293,-0.404222 0.51076516,-0.498654 L 1.0118848,11.293178 1.0119324,8.0014443 1.01198,4.7097102 0.87925934,4.6245436 C 0.64861545,4.4765399 0.36764366,4.1512381 0.23030011,3.8731956 0.07458136,3.557954 0.02212493,3.3296869 0.02359582,2.9737105 0.02527763,2.5666891 0.12256232,2.2408462 0.34318067,1.9033009 0.74790392,1.2840757 1.5111277,0.93095111 2.2315646,1.0295927 3.0666074,1.1439259 3.7140097,1.7184654 3.9183547,2.5265408 3.9637066,2.7058825 3.9709977,2.7988626 3.9605663,3.064842 3.9459541,3.4374146 3.8733234,3.7019115 3.7081688,3.983987 3.5848037,4.1946883 3.3232993,4.4779687 3.1279776,4.612492 L 2.98203,4.71301 l 0,2.3898492 0,2.3898492 0.1930116,-0.088656 C 3.6243605,9.197665 4.1201304,9.0915786 4.8456442,9.0465712 5.308591,9.0178521 5.5279574,8.9693713 5.7906822,8.8377139 6.136636,8.664349 6.5358097,8.2926166 6.7311891,7.9618625 6.9095819,7.659865 6.982117,7.4055944 6.9960367,7.0334448 L 7.0079923,6.7138114 6.8569123,6.6097587 C 6.4527044,6.3313701 6.1268616,5.8203602 6.041899,5.3315969 5.9983486,5.081067 6.0238445,4.6602433 6.0968482,4.4246256 6.3000471,3.7688043 6.8420904,3.2486698 7.5001872,3.0780073 c 0.2838053,-0.073598 0.7164858,-0.073598 1.0002912,0 0.6539472,0.1695864 1.1860539,0.6760099 1.3962638,1.3288706 0.090896,0.2823015 0.1109538,0.6915133 0.047973,0.9787386 C 9.8326911,5.8965074 9.4698971,6.4182243 9.0570825,6.66208 8.9824703,6.7061543 8.9788683,6.7173979 8.9646365,6.9506428 8.9211099,7.6640061 8.6147094,8.552423 8.1966589,9.177415 7.8510842,9.6940547 7.2272309,10.24853 6.6598267,10.543337 c -0.5234724,0.271982 -1.0091815,0.399292 -1.6879902,0.442442 -0.4559467,0.02898 -0.7184969,0.07869 -0.8913256,0.16874 -0.062059,0.03234 -0.2271156,0.153338 -0.366794,0.268895 -0.2239984,0.185314 -0.2499477,0.21547 -0.2199455,0.255599 0.1738668,0.232551 0.2987754,0.448308 0.3656448,0.631585 0.3543893,0.971315 -0.059131,2.003649 -0.9907882,2.47346 -0.3825906,0.19293 -0.9302198,0.250424 -1.3508243,0.14182 z M 2.4273896,14.13765 C 2.9564105,13.929484 3.2811115,13.376256 3.194067,12.831379 3.1225012,12.383394 2.8082457,12.012443 2.3725431,11.861643 c -0.1736361,-0.0601 -0.4885583,-0.07094 -0.6686407,-0.02302 -0.3306444,0.08799 -0.6530447,0.36192 -0.80599736,0.684832 -0.0810068,0.171021 -0.0855922,0.197177 -0.0855922,0.488239 0,0.301252 0.002023,0.31163 0.0989926,0.507835 0.2834276,0.573477 0.9445409,0.843017 1.5160842,0.618118 z M 8.2922473,6.180821 C 8.8571831,6.033674 9.2514529,5.4870405 9.2037269,4.9171051 9.1654456,4.4599606 8.8543665,4.0468744 8.41938,3.875561 8.2013939,3.78971 7.7992716,3.78971 7.5812856,3.875561 7.2671042,3.9992969 6.9836209,4.283812 6.8688354,4.5906037 6.5321834,5.4903864 7.3661178,6.422047 8.2922473,6.180821 Z M 2.5193154,4.0811131 C 3.2712663,3.7247372 3.4393927,2.7388936 2.8489185,2.1484193 2.2599964,1.5594972 1.2865565,1.7318481 0.91110863,2.4915152 c -0.0967416,0.1957433 -0.0987958,0.2062942 -0.0987958,0.5074369 0,0.2910612 0.004585,0.3172179 0.0855922,0.4882387 C 1.1942762,4.1128873 1.90385,4.372804 2.5193154,4.0811131 Z"
     id="path3404"
     inkscape:connector-curvature="0" />
</svg>
